<svg id="svg-source" height="0" version="1.1" 
  xmlns="http://www.w3.org/2000/svg" style="position:absolute; margin-left: -100%" 
  xmlns:xlink="http://www.w3.org/1999/xlink">
  <g id="menu" data-iconmelon="80 icons pack:df4c03e14fffd286f5d0afe417c30316">
    <g>
      <g>
        <path d="M2.081,8.724h27.838C31.068,8.724,32,7.791,32,6.643c0-1.149-0.932-2.08-2.081-2.08H2.081C0.932,4.562,0,5.493,0,6.643
			C0,7.791,0.932,8.724,2.081,8.724z"></path>
      </g>
      <g>
        <path d="M29.919,13.918H2.081C0.932,13.918,0,14.851,0,15.999c0,1.15,0.932,2.081,2.081,2.081h27.838
			c1.149,0,2.081-0.931,2.081-2.081C32,14.851,31.068,13.918,29.919,13.918z"></path>
      </g>
      <g>
        <path d="M29.919,23.276H2.081C0.932,23.276,0,24.207,0,25.357c0,1.147,0.932,2.08,2.081,2.08h27.838
			c1.149,0,2.081-0.933,2.081-2.08C32,24.207,31.068,23.276,29.919,23.276z"></path>
      </g>
    </g>
  </g>
</svg>